<?xml version="1.0" encoding="UTF-8"?>
<svg id="Layer_2" data-name="Layer 2" xmlns="http://www.w3.org/2000/svg" viewBox="0 0 553.43 738.59">
  <g id="Layer_1-2" data-name="Layer 1">
    <path d="M553.43,0c-48.17,40.76-146.9,146.75-194.95,187.73-47.07,1.21-116.48,1.2-163.56,0C134.16,135.19,60.95,52.19,0,.17c20.84,45.54,133.53,236.01,159.63,283.16-4.12,113.67-16.36,232.06-85.94,326.26,17.96-1.02,53.86-17.82,66.17-11.43,22.28,19.87,114.15,117.08,136.59,140.43,36.35-37.21,102.05-107.36,140.39-142.56,22.12,1.53,40.88,10.78,62.93,13.53-69.37-93.72-82.06-213.52-85.83-326.5C421.02,234,531.84,47.55,553.43,0ZM304.3,310.13c36.92-62.24,56.42-9.38,34.77,4.63-10.06,8.61-23.56,9.98-35.06,1.5-.5-1.56-.45-4.82.29-6.13ZM264.26,350.33c5.25,8.5-8.66,10.62-12.57,18.05-11.65,24.27,22.62,41.87,41.46,28.63,10.29-6.21,14.45-19.35,7.1-29.74-4.48-6.34-13.67-8.06-12.28-14.91,6.94-17.24,40.12,17,27.09,39.49-12.1,27.63-52.43,32.04-71.32,9.59-21.43-21.03,5.07-63.68,20.52-51.12ZM202.41,296.23c0-10.67,9.86-21.56,20.57-13.12,8.18,7.02,24.37,21.35,23.55,32.76-15.3,13.83-45.52,1.98-44.12-19.64ZM306.96,632.64c-54.91,21.96-96.4-22.92-132.66-60.94,2.63-44.26,10.92-88.1,20.25-131.24,1.55-6.75,3.07-12.09,6.83-18.24,2.32,4.17,3.53,7.1,3.84,10.79,3.03,28.75,6.59,92.39,7.83,121.73,3.99-26.24,13.36-79.11,18.99-104.86.92-4.59,2.36-8.27,6.24-12.35,7.56,42.54,8.21,117.64,13.88,160.39,7.59-40.28,13.14-115.14,24.5-154.74,2.11,1.22,4.45,3.5,4.75,5.54,7.4,49.15,10.86,99.24,19.93,148.05,3.25-37.27,7.46-123.02,13.5-158.97,4.4,2.66,5.39,6.2,6.46,10.22,7.81,28.44,14.1,77.12,19.12,106.73,1.25-29.56,4.8-92.79,7.83-121.73.3-3.6,1.62-6.67,3.72-10.8,4.01,6.05,5.42,11.43,6.97,18.18,9.31,43.16,17.62,87.06,20.25,131.34-16.68,17.01-53.65,54.27-72.21,60.9Z"/>
  </g>
</svg>